<svg version="1.1" id="Layer_1" xmlns="http://www.w3.org/2000/svg" xmlns:xlink="http://www.w3.org/1999/xlink" x="0px" y="0px"
	width="100%" viewBox="0 0 410 141" xml:space="preserve" strokeWidth="0" >

<path fill="#f99500" strokeWidth="0" opacity="1.000000" 
	d="
M2.569253,107.944527 
	C2.074476,77.261703 2.038553,46.630421 2.041869,15.536709 
	C12.064830,15.074279 22.048553,15.074279 32.542339,15.074279 
	C40.023052,37.049580 47.531273,59.105701 55.281872,81.873833 
	C56.000092,79.266022 56.508167,76.965202 57.263916,74.748833 
	C63.696152,55.885117 70.131187,37.021938 76.726990,18.215277 
	C77.193832,16.884150 78.917084,15.091438 80.100693,15.057268 
	C89.216202,14.794102 98.342720,14.912451 107.791130,14.912451 
	C107.791130,23.757381 107.791130,32.197121 107.791130,41.091934 
	C113.838516,41.091934 119.575180,41.091934 125.664146,41.091934 
	C130.552338,57.186806 135.344376,72.965073 140.230698,89.053795 
	C144.780670,74.256363 149.304260,59.907425 153.541229,45.474346 
	C154.441238,42.408493 155.644547,40.792091 158.952881,41.338699 
	C159.600815,41.445751 160.294724,41.260410 160.948227,41.350018 
	C166.214798,42.072163 169.233566,40.267159 172.232956,35.270573 
	C181.636688,19.605169 196.654526,13.227888 214.439514,13.380991 
	C221.027023,13.437700 227.623291,14.859852 234.161224,15.977253 
	C235.269577,16.166683 236.878586,17.933378 236.931793,19.035324 
	C237.210266,24.802082 237.061859,30.589453 237.061859,35.263325 
	C229.628281,33.965103 222.344666,31.510677 215.116333,31.663906 
	C197.161255,32.044525 186.966095,43.210423 186.703003,61.444649 
	C186.547867,72.197517 189.627853,81.771904 199.413269,87.461967 
	C209.860870,93.537079 220.880127,92.140533 231.651947,87.965431 
	C232.479218,87.644775 233.055176,85.294456 232.885574,84.000587 
	C231.459229,73.118774 232.368378,62.778175 238.773315,53.393223 
	C250.923416,35.590092 281.647278,34.712936 292.767517,55.399048 
	C292.767517,39.705822 292.767517,24.851755 292.767517,9.718699 
	C299.808655,9.718699 306.396149,9.718699 313.316711,9.718699 
	C313.316711,42.369392 313.316711,74.925056 313.316711,107.742905 
	C306.680084,107.742905 300.102081,107.742905 293.025696,107.742905 
	C293.025696,98.848495 293.025696,89.948730 293.025696,80.941742 
	C279.430847,80.941742 266.331818,80.941742 253.237045,80.941742 
	C253.121277,87.774025 256.500732,92.351662 263.169678,94.034821 
	C272.443573,96.375435 281.241760,94.685715 289.843628,90.003998 
	C289.843628,95.101112 289.843628,99.847824 289.842712,104.595390 
	C271.823303,113.671890 250.444901,110.501343 237.742126,96.868942 
	C237.531967,97.058472 237.146469,97.241402 237.138260,97.439934 
	C236.801559,105.576775 236.840958,105.730972 228.624146,107.603348 
	C218.458679,109.919769 208.169296,110.531235 197.907669,108.266541 
	C180.331909,104.387665 169.849045,93.357346 165.866852,75.943527 
	C165.479767,74.250816 165.099670,72.556519 164.548096,70.119705 
	C159.191833,84.297646 154.270157,97.852921 148.918686,111.236343 
	C146.712662,116.753342 144.097961,122.251106 140.769836,127.146187 
	C133.065125,138.478470 121.357353,141.770935 106.582489,137.372162 
	C106.582489,132.166443 106.582489,126.896393 106.582489,121.341217 
	C107.949272,121.861763 109.142258,122.410896 110.389206,122.775513 
	C118.025085,125.008301 123.178741,122.453209 126.873566,115.502495 
	C129.580566,110.410080 129.580460,105.990288 127.197067,100.621529 
	C121.076019,86.833366 115.664742,72.730263 109.953575,58.759670 
	C109.549568,57.771397 109.013680,56.837036 108.008041,54.803909 
	C108.008041,73.111557 108.008041,90.200737 108.008041,107.646194 
	C101.039482,107.646194 94.311180,107.646194 87.217392,107.646194 
	C87.217392,84.720573 87.217392,61.645432 87.217392,38.570290 
	C86.967056,38.525272 86.716721,38.480259 86.466393,38.435242 
	C78.558205,61.550926 70.650024,84.666611 62.714321,107.862724 
	C56.924438,107.862724 51.280842,107.862724 45.342617,107.862724 
	C37.371319,85.261719 29.395985,62.649281 21.420652,40.036839 
	C21.152071,40.055202 20.883488,40.073566 20.614906,40.091934 
	C20.614906,62.572182 20.614906,85.052429 20.614906,107.996071 
	C14.599857,107.996071 8.813983,107.996071 2.569253,107.944527 
M274.158997,68.001152 
	C275.037689,67.103531 276.694458,66.186913 276.673096,65.311249 
	C276.485748,57.634750 271.564056,53.260929 264.200317,53.904434 
	C257.926178,54.452724 252.751175,61.101662 253.388107,68.001427 
	C259.987244,68.001427 266.604401,68.001427 274.158997,68.001152 
z"/>
<path fill="#000" strokeWidth="0" opacity="1.000000"  
	d="
M391.221130,51.576698 
	C392.798767,61.538319 394.312744,71.072853 395.871704,80.600044 
	C397.371094,89.762833 395.787445,92.025154 386.811981,93.441277 
	C374.152161,95.438713 361.494537,97.450462 348.835266,99.451393 
	C343.094757,100.358742 339.941956,98.146523 339.023193,92.366798 
	C335.312775,69.025406 331.602722,45.683708 327.999603,22.325611 
	C326.721680,14.041302 328.359314,11.988793 336.757263,10.639682 
	C349.575897,8.580398 362.400726,6.559586 375.225067,4.535993 
	C381.174469,3.597222 384.085602,5.901074 385.061676,12.177767 
	C387.082031,25.170130 389.136627,38.157177 391.221130,51.576698 
M385.988464,65.702843 
	C383.153259,47.845573 380.318024,29.988308 377.306519,11.020603 
	C363.502411,16.508621 349.910248,20.544777 334.722321,17.330162 
	C338.808624,43.197472 342.643921,67.475563 346.548096,92.189934 
	C360.722351,89.960350 374.641144,87.770950 389.071808,85.501038 
	C388.056213,78.972145 387.091644,72.771240 385.988464,65.702843 
M350.744781,15.114968 
	C351.238861,15.067815 351.758240,15.102645 352.222595,14.959262 
	C354.194427,14.350397 356.149963,13.688669 358.111420,13.046259 
	C357.920258,12.470935 357.710144,11.390008 357.540771,11.396357 
	C355.120728,11.487070 352.688538,11.626597 350.313232,12.054278 
	C350.025269,12.106129 350.051422,13.902503 350.744781,15.114968 
z"/>
<path fill="#000" strokeWidth="0" opacity="1.000000"  
	d="
M398.799316,42.373894 
	C398.177124,38.511715 397.222992,35.081139 397.187622,31.641121 
	C397.169800,29.910112 398.820435,28.161947 399.716583,26.421539 
	C401.243042,27.608641 403.841309,28.583508 404.125092,30.016674 
	C406.248535,40.740513 408.042999,51.536987 409.554565,62.364586 
	C409.734955,63.656578 407.593842,65.272636 406.528748,66.738464 
	C405.079834,65.461456 402.689087,64.396843 402.344940,62.870720 
	C400.853058,56.254509 399.958649,49.503559 398.799316,42.373894 
z"/>
<path fill="#000" strokeWidth="0" opacity="1.000000"  
	d="
M322.109741,41.925507 
	C324.242096,51.436108 326.080750,60.703762 327.860229,69.982758 
	C328.329559,72.429970 329.037170,74.949471 328.823303,77.363846 
	C328.702057,78.732918 327.060089,80.828140 325.870300,81.001785 
	C324.658691,81.178619 322.163239,79.590424 321.944611,78.447182 
	C319.851227,67.499748 317.924408,56.509907 316.404999,45.469582 
	C315.936279,42.063923 317.960052,40.056660 322.109741,41.925507 
z"/>

<path fill="#fff" strokeWidth="0" opacity="1.000000"  
	d="
M386.057800,66.136589 
	C387.091644,72.771240 388.056213,78.972145 389.071808,85.501038 
	C374.641144,87.770950 360.722351,89.960350 346.548096,92.189934 
	C342.643921,67.475563 338.808624,43.197472 334.722321,17.330162 
	C349.910248,20.544777 363.502411,16.508621 377.306519,11.020603 
	C380.318024,29.988308 383.153259,47.845573 386.057800,66.136589 
z"/>
<path fill="#fff" strokeWidth="0" opacity="1.000000"  
	d="
M350.338379,15.002662 
	C350.051422,13.902503 350.025269,12.106129 350.313232,12.054278 
	C352.688538,11.626597 355.120728,11.487070 357.540771,11.396357 
	C357.710144,11.390008 357.920258,12.470935 358.111450,13.046255 
	C356.149963,13.688669 354.194427,14.350397 352.222595,14.959262 
	C351.758240,15.102645 351.238861,15.067815 350.338379,15.002662 
z"/>
</svg>